# xmcd
#
# Track frame offsets: 
#        150
#        20429
#        41478
#        59719
#        75997
#        88969
#        103675
#        117766
#        138994
#        156112
#        176765
#        193238
#
# Disc length: 2812 seconds
#
# Revision: 2
# Processed by: cddbd v1.5.2PL0 Copyright (c) Steve Scherf et al.
# Submitted via: ExactAudioCopy v1.0b3
#
DISCID=a00afa0c
DTITLE=Stevie Ann - Closer To The Heart
DYEAR=2007
DGENRE=Alternative
TTITLE0=I've Listened To Buddha
TTITLE1=Wait Up For Me
TTITLE2=Love Is Not A Gift
TTITLE3=Get Away
TTITLE4=Your Own Heart
TTITLE5=Love Song
TTITLE6=Day Break
TTITLE7=Baby Blue
TTITLE8=Whole Lotta Rain
TTITLE9=Old Bricks
TTITLE10=Closer To The Heart
TTITLE11=As Cold As You
EXTD=
EXTT0=
EXTT1=
EXTT2=
EXTT3=
EXTT4=
EXTT5=
EXTT6=
EXTT7=
EXTT8=
EXTT9=
EXTT10=
EXTT11=
PLAYORDER=
